<?xml version="1.0" encoding="UTF-8" standalone="no"?>
<!DOCTYPE svg PUBLIC "-//W3C//DTD SVG 1.1//EN" "http://www.w3.org/Graphics/SVG/1.1/DTD/svg11.dtd">
<svg width="100%" height="100%" viewBox="0 0 2056 381" version="1.1" xmlns="http://www.w3.org/2000/svg" xmlns:xlink="http://www.w3.org/1999/xlink" xml:space="preserve" xmlns:serif="http://www.serif.com/" style="fill-rule:evenodd;clip-rule:evenodd;stroke-miterlimit:1.5;">
    <g transform="matrix(1,0,0,1,6.83706,6.83706)">
        <g transform="matrix(1,0,0,1,-1621,-641)">
            <g transform="matrix(0.517044,0,0,0.517044,277.497,-91.817)">
                <circle cx="2952.76" cy="1771.65" r="354.331" style="fill:rgb(138,207,215);stroke:white;stroke-width:14.67px;"/>
                <g transform="matrix(0.905233,0,0,0.905233,364.72,439.96)">
                    <circle cx="2759.64" cy="1471.87" r="291.463" style="fill:rgb(70,122,181);stroke:white;stroke-width:16.2px;stroke-linecap:round;"/>
                </g>
                <g transform="matrix(1.11645,0,0,1.14882,-360.125,571.36)">
                    <g id="triangle">
                        <path d="M2878.05,965.723L2911.24,1344.49L2845.72,1334.8L2878.05,965.723Z" style="fill:white;"/>
                    </g>
                </g>
                <g transform="matrix(0.731511,0,0,0.782863,771.569,990.969)">
                    <path d="M2940.74,983.802L2953.97,1052.51L2927.51,1052.51L2940.74,983.802Z" style="fill:white;"/>
                </g>
                <g transform="matrix(0.50283,-0.864385,1.02313,0.595175,369.723,3665.16)">
                    <path d="M2854.69,892.823L2869.92,1016.76L2838.94,1031.98L2854.69,892.823Z" style="fill:white;"/>
                </g>
                <g transform="matrix(-0.50283,-0.864385,-1.02313,0.595175,5336.43,3714.34)">
                    <path d="M2854.69,892.823L2869.92,1016.76L2838.94,1031.98L2854.69,892.823Z" style="fill:white;"/>
                </g>
                <g transform="matrix(0.817636,0.575736,0.575736,-0.817636,-108.772,1022.18)">
                    <path d="M2795.79,999.065L2803.42,1052.51L2788.16,1052.51L2795.79,999.065Z" style="fill:white;"/>
                </g>
            </g>
        </g>
        <g transform="matrix(1,0,0,1,-1621,-641)">
            <g transform="matrix(0.814042,0,0,0.814042,1718.84,734.342)">
                <g transform="matrix(190,0,0,190,442.141,174.767)">
                    <path d="M0.346,-0.711C0.42,-0.711 0.478,-0.695 0.52,-0.663C0.562,-0.631 0.583,-0.583 0.583,-0.519C0.583,-0.487 0.573,-0.459 0.553,-0.434C0.533,-0.409 0.507,-0.39 0.474,-0.378C0.516,-0.369 0.55,-0.348 0.575,-0.315C0.599,-0.283 0.612,-0.244 0.612,-0.201C0.612,-0.136 0.591,-0.086 0.548,-0.052C0.506,-0.017 0.449,0 0.376,0L0.035,0L0.035,-0.062L0.114,-0.075L0.114,-0.635L0.035,-0.649L0.035,-0.711L0.346,-0.711ZM0.21,-0.333L0.21,-0.075L0.376,-0.075C0.42,-0.075 0.455,-0.086 0.479,-0.108C0.503,-0.129 0.515,-0.16 0.515,-0.2C0.515,-0.241 0.505,-0.274 0.485,-0.298C0.464,-0.322 0.433,-0.333 0.391,-0.333L0.21,-0.333ZM0.21,-0.409L0.371,-0.409C0.406,-0.41 0.434,-0.42 0.455,-0.439C0.476,-0.459 0.487,-0.486 0.487,-0.521C0.487,-0.559 0.475,-0.588 0.451,-0.607C0.427,-0.626 0.392,-0.635 0.346,-0.635L0.21,-0.635L0.21,-0.409Z" style="fill:rgb(70,122,181);fill-rule:nonzero;"/>
                </g>
                <g transform="matrix(190,0,0,190,565.021,174.767)">
                    <path d="M0.03,-0.7L0.03,-0.762L0.206,-0.762L0.206,-0.075L0.286,-0.062L0.286,0L0.03,0L0.03,-0.062L0.11,-0.075L0.11,-0.686L0.03,-0.7Z" style="fill:rgb(70,122,181);fill-rule:nonzero;"/>
                </g>
                <g transform="matrix(190,0,0,190,622.96,174.767)">
                    <path d="M0.421,-0.078C0.405,-0.05 0.383,-0.028 0.357,-0.013C0.331,0.003 0.301,0.01 0.267,0.01C0.209,0.01 0.165,-0.008 0.132,-0.045C0.1,-0.082 0.084,-0.139 0.084,-0.217L0.084,-0.453L0.023,-0.466L0.023,-0.528L0.18,-0.528L0.18,-0.216C0.18,-0.16 0.188,-0.121 0.205,-0.1C0.222,-0.078 0.248,-0.068 0.283,-0.068C0.317,-0.068 0.345,-0.075 0.367,-0.089C0.39,-0.102 0.407,-0.122 0.418,-0.147L0.418,-0.453L0.347,-0.466L0.347,-0.528L0.514,-0.528L0.514,-0.075L0.575,-0.062L0.575,0L0.428,0L0.421,-0.078Z" style="fill:rgb(70,122,181);fill-rule:nonzero;"/>
                </g>
                <g transform="matrix(190,0,0,190,736.47,174.767)">
                    <path d="M0.285,0.01C0.211,0.01 0.153,-0.014 0.109,-0.063C0.066,-0.112 0.044,-0.176 0.044,-0.254L0.044,-0.275C0.044,-0.351 0.066,-0.413 0.111,-0.463C0.156,-0.513 0.209,-0.538 0.27,-0.538C0.341,-0.538 0.395,-0.517 0.431,-0.474C0.468,-0.431 0.486,-0.373 0.486,-0.302L0.486,-0.242L0.144,-0.242L0.142,-0.239C0.143,-0.188 0.156,-0.147 0.181,-0.114C0.205,-0.081 0.24,-0.065 0.285,-0.065C0.317,-0.065 0.346,-0.07 0.37,-0.079C0.395,-0.088 0.416,-0.101 0.434,-0.117L0.472,-0.055C0.453,-0.036 0.428,-0.021 0.397,-0.009C0.366,0.004 0.328,0.01 0.285,0.01ZM0.27,-0.462C0.238,-0.462 0.21,-0.449 0.188,-0.422C0.165,-0.394 0.151,-0.36 0.146,-0.319L0.146,-0.317L0.39,-0.317L0.39,-0.33C0.39,-0.367 0.38,-0.399 0.36,-0.424C0.34,-0.45 0.31,-0.462 0.27,-0.462Z" style="fill:rgb(70,122,181);fill-rule:nonzero;"/>
                </g>
                <g transform="matrix(190,0,0,190,836.714,174.767)">
                    <path d="M0.609,-0.711L0.609,-0.554L0.527,-0.554L0.52,-0.635L0.362,-0.635L0.362,-0.075L0.441,-0.062L0.441,0L0.186,0L0.186,-0.062L0.266,-0.075L0.266,-0.635L0.107,-0.635L0.101,-0.554L0.018,-0.554L0.018,-0.711L0.609,-0.711Z" style="fill:rgb(70,122,181);fill-rule:nonzero;"/>
                </g>
                <g transform="matrix(190,0,0,190,946.977,174.767)">
                    <path d="M0.043,-0.466L0.043,-0.528L0.209,-0.528L0.218,-0.452C0.233,-0.479 0.252,-0.5 0.274,-0.515C0.296,-0.53 0.321,-0.538 0.349,-0.538C0.357,-0.538 0.364,-0.538 0.372,-0.536C0.38,-0.535 0.386,-0.534 0.391,-0.533L0.378,-0.443L0.323,-0.446C0.298,-0.446 0.277,-0.44 0.259,-0.428C0.242,-0.417 0.229,-0.4 0.219,-0.378L0.219,-0.075L0.299,-0.062L0.299,0L0.043,0L0.043,-0.062L0.123,-0.075L0.123,-0.453L0.043,-0.466Z" style="fill:rgb(70,122,181);fill-rule:nonzero;"/>
                </g>
                <g transform="matrix(190,0,0,190,1021.89,174.767)">
                    <path d="M0.285,0.01C0.211,0.01 0.153,-0.014 0.109,-0.063C0.066,-0.112 0.044,-0.176 0.044,-0.254L0.044,-0.275C0.044,-0.351 0.066,-0.413 0.111,-0.463C0.156,-0.513 0.209,-0.538 0.27,-0.538C0.341,-0.538 0.395,-0.517 0.431,-0.474C0.468,-0.431 0.486,-0.373 0.486,-0.302L0.486,-0.242L0.144,-0.242L0.142,-0.239C0.143,-0.188 0.156,-0.147 0.181,-0.114C0.205,-0.081 0.24,-0.065 0.285,-0.065C0.317,-0.065 0.346,-0.07 0.37,-0.079C0.395,-0.088 0.416,-0.101 0.434,-0.117L0.472,-0.055C0.453,-0.036 0.428,-0.021 0.397,-0.009C0.366,0.004 0.328,0.01 0.285,0.01ZM0.27,-0.462C0.238,-0.462 0.21,-0.449 0.188,-0.422C0.165,-0.394 0.151,-0.36 0.146,-0.319L0.146,-0.317L0.39,-0.317L0.39,-0.33C0.39,-0.367 0.38,-0.399 0.36,-0.424C0.34,-0.45 0.31,-0.462 0.27,-0.462Z" style="fill:rgb(70,122,181);fill-rule:nonzero;"/>
                </g>
                <g transform="matrix(190,0,0,190,1122.14,174.767)">
                    <path d="M0.285,0.01C0.211,0.01 0.153,-0.014 0.109,-0.063C0.066,-0.112 0.044,-0.176 0.044,-0.254L0.044,-0.275C0.044,-0.351 0.066,-0.413 0.111,-0.463C0.156,-0.513 0.209,-0.538 0.27,-0.538C0.341,-0.538 0.395,-0.517 0.431,-0.474C0.468,-0.431 0.486,-0.373 0.486,-0.302L0.486,-0.242L0.144,-0.242L0.142,-0.239C0.143,-0.188 0.156,-0.147 0.181,-0.114C0.205,-0.081 0.24,-0.065 0.285,-0.065C0.317,-0.065 0.346,-0.07 0.37,-0.079C0.395,-0.088 0.416,-0.101 0.434,-0.117L0.472,-0.055C0.453,-0.036 0.428,-0.021 0.397,-0.009C0.366,0.004 0.328,0.01 0.285,0.01ZM0.27,-0.462C0.238,-0.462 0.21,-0.449 0.188,-0.422C0.165,-0.394 0.151,-0.36 0.146,-0.319L0.146,-0.317L0.39,-0.317L0.39,-0.33C0.39,-0.367 0.38,-0.399 0.36,-0.424C0.34,-0.45 0.31,-0.462 0.27,-0.462Z" style="fill:rgb(70,122,181);fill-rule:nonzero;"/>
                </g>
                <g transform="matrix(190,0,0,190,1267.7,174.767)">
                    <path d="M0.035,0L0.035,-0.062L0.114,-0.075L0.114,-0.635L0.035,-0.649L0.035,-0.711L0.29,-0.711L0.29,-0.649L0.21,-0.635L0.21,-0.075L0.458,-0.075L0.465,-0.157L0.547,-0.157L0.547,0L0.035,0Z" style="fill:rgb(70,122,181);fill-rule:nonzero;"/>
                </g>
                <g transform="matrix(190,0,0,190,1377.04,174.767)">
                    <path d="M0.388,0C0.385,-0.014 0.383,-0.027 0.381,-0.039C0.38,-0.05 0.379,-0.061 0.378,-0.073C0.359,-0.049 0.336,-0.029 0.308,-0.013C0.281,0.002 0.251,0.01 0.219,0.01C0.164,0.01 0.122,-0.003 0.094,-0.03C0.065,-0.057 0.051,-0.095 0.051,-0.144C0.051,-0.194 0.071,-0.232 0.112,-0.26C0.152,-0.287 0.208,-0.3 0.278,-0.3L0.377,-0.3L0.377,-0.362C0.377,-0.393 0.368,-0.417 0.348,-0.435C0.329,-0.453 0.301,-0.462 0.267,-0.462C0.243,-0.462 0.221,-0.459 0.203,-0.453C0.184,-0.447 0.17,-0.438 0.158,-0.428L0.148,-0.372L0.074,-0.372L0.074,-0.475C0.098,-0.494 0.127,-0.509 0.161,-0.521C0.195,-0.532 0.232,-0.538 0.272,-0.538C0.332,-0.538 0.381,-0.523 0.418,-0.492C0.455,-0.462 0.474,-0.418 0.474,-0.361L0.474,-0.106C0.474,-0.1 0.474,-0.093 0.474,-0.086C0.474,-0.08 0.474,-0.073 0.475,-0.067L0.514,-0.062L0.514,0L0.388,0ZM0.233,-0.07C0.265,-0.07 0.294,-0.078 0.321,-0.093C0.347,-0.109 0.366,-0.127 0.377,-0.148L0.377,-0.235L0.275,-0.235C0.236,-0.235 0.204,-0.226 0.181,-0.208C0.158,-0.19 0.147,-0.168 0.147,-0.142C0.147,-0.118 0.154,-0.101 0.168,-0.089C0.183,-0.076 0.204,-0.07 0.233,-0.07Z" style="fill:rgb(70,122,181);fill-rule:nonzero;"/>
                </g>
                <g transform="matrix(190,0,0,190,1479.79,174.767)">
                    <path d="M0.029,-0.062L0.109,-0.075L0.109,-0.453L0.029,-0.466L0.029,-0.528L0.195,-0.528L0.202,-0.45C0.219,-0.478 0.241,-0.499 0.268,-0.515C0.294,-0.53 0.325,-0.538 0.358,-0.538C0.415,-0.538 0.459,-0.521 0.491,-0.488C0.522,-0.455 0.538,-0.403 0.538,-0.333L0.538,-0.075L0.617,-0.062L0.617,0L0.362,0L0.362,-0.062L0.441,-0.075L0.441,-0.332C0.441,-0.378 0.432,-0.411 0.414,-0.431C0.395,-0.45 0.367,-0.46 0.33,-0.46C0.302,-0.46 0.277,-0.453 0.256,-0.44C0.235,-0.427 0.218,-0.408 0.205,-0.385L0.205,-0.075L0.285,-0.062L0.285,0L0.029,0L0.029,-0.062Z" style="fill:rgb(70,122,181);fill-rule:nonzero;"/>
                </g>
                <g transform="matrix(190,0,0,190,1599.23,174.767)">
                    <path d="M0.399,-0.063C0.382,-0.039 0.361,-0.021 0.336,-0.008C0.311,0.004 0.282,0.01 0.25,0.01C0.185,0.01 0.135,-0.013 0.098,-0.06C0.062,-0.107 0.044,-0.168 0.044,-0.244L0.044,-0.254C0.044,-0.339 0.062,-0.408 0.098,-0.46C0.135,-0.512 0.185,-0.538 0.25,-0.538C0.282,-0.538 0.309,-0.532 0.333,-0.521C0.357,-0.509 0.378,-0.493 0.395,-0.471L0.395,-0.686L0.315,-0.7L0.315,-0.762L0.491,-0.762L0.491,-0.075L0.57,-0.062L0.57,0L0.407,0L0.399,-0.063ZM0.14,-0.244C0.14,-0.191 0.151,-0.148 0.173,-0.116C0.195,-0.084 0.228,-0.068 0.274,-0.068C0.303,-0.068 0.327,-0.074 0.346,-0.087C0.366,-0.1 0.382,-0.119 0.395,-0.143L0.395,-0.388C0.382,-0.41 0.366,-0.427 0.346,-0.44C0.326,-0.453 0.303,-0.46 0.275,-0.46C0.229,-0.46 0.195,-0.441 0.173,-0.403C0.151,-0.365 0.14,-0.315 0.14,-0.254L0.14,-0.244Z" style="fill:rgb(70,122,181);fill-rule:nonzero;"/>
                </g>
                <g transform="matrix(190,0,0,190,1711.35,174.767)">
                    <path d="M0.448,-0.362L0.375,-0.362L0.36,-0.426C0.348,-0.437 0.333,-0.446 0.316,-0.452C0.298,-0.459 0.278,-0.462 0.255,-0.462C0.221,-0.462 0.196,-0.455 0.179,-0.44C0.163,-0.425 0.154,-0.407 0.154,-0.386C0.154,-0.365 0.162,-0.348 0.176,-0.336C0.191,-0.324 0.221,-0.314 0.266,-0.304C0.332,-0.29 0.382,-0.27 0.415,-0.246C0.447,-0.221 0.463,-0.188 0.463,-0.147C0.463,-0.1 0.444,-0.062 0.406,-0.033C0.369,-0.004 0.319,0.01 0.258,0.01C0.218,0.01 0.182,0.006 0.15,-0.004C0.118,-0.013 0.09,-0.026 0.064,-0.044L0.064,-0.165L0.136,-0.165L0.154,-0.094C0.165,-0.084 0.18,-0.076 0.199,-0.072C0.219,-0.067 0.238,-0.065 0.258,-0.065C0.292,-0.065 0.319,-0.072 0.338,-0.086C0.358,-0.1 0.367,-0.118 0.367,-0.14C0.367,-0.161 0.359,-0.179 0.343,-0.192C0.327,-0.206 0.296,-0.218 0.251,-0.228C0.187,-0.242 0.139,-0.261 0.106,-0.285C0.074,-0.309 0.058,-0.342 0.058,-0.383C0.058,-0.426 0.076,-0.462 0.113,-0.493C0.149,-0.523 0.197,-0.538 0.255,-0.538C0.295,-0.538 0.331,-0.533 0.363,-0.522C0.395,-0.512 0.422,-0.498 0.443,-0.479L0.448,-0.362Z" style="fill:rgb(70,122,181);fill-rule:nonzero;"/>
                </g>
                <g transform="matrix(190,0,0,190,1806.31,174.767)">
                    <path d="M0.281,-0.065C0.313,-0.065 0.341,-0.075 0.365,-0.094C0.389,-0.114 0.401,-0.138 0.401,-0.167L0.488,-0.167L0.489,-0.164C0.49,-0.118 0.47,-0.078 0.428,-0.043C0.386,-0.007 0.337,0.01 0.281,0.01C0.204,0.01 0.145,-0.015 0.105,-0.065C0.064,-0.115 0.044,-0.178 0.044,-0.254L0.044,-0.274C0.044,-0.35 0.064,-0.412 0.105,-0.463C0.146,-0.513 0.204,-0.538 0.281,-0.538C0.323,-0.538 0.361,-0.531 0.395,-0.517C0.428,-0.503 0.456,-0.484 0.479,-0.459L0.483,-0.342L0.406,-0.342L0.385,-0.425C0.374,-0.436 0.359,-0.445 0.341,-0.452C0.323,-0.459 0.303,-0.462 0.281,-0.462C0.23,-0.462 0.194,-0.444 0.173,-0.408C0.151,-0.372 0.14,-0.327 0.14,-0.274L0.14,-0.254C0.14,-0.2 0.151,-0.155 0.172,-0.119C0.194,-0.083 0.23,-0.065 0.281,-0.065Z" style="fill:rgb(70,122,181);fill-rule:nonzero;"/>
                </g>
                <g transform="matrix(190,0,0,190,1906.83,174.767)">
                    <path d="M0.388,0C0.385,-0.014 0.383,-0.027 0.381,-0.039C0.38,-0.05 0.379,-0.061 0.378,-0.073C0.359,-0.049 0.336,-0.029 0.308,-0.013C0.281,0.002 0.251,0.01 0.219,0.01C0.164,0.01 0.122,-0.003 0.094,-0.03C0.065,-0.057 0.051,-0.095 0.051,-0.144C0.051,-0.194 0.071,-0.232 0.112,-0.26C0.152,-0.287 0.208,-0.3 0.278,-0.3L0.377,-0.3L0.377,-0.362C0.377,-0.393 0.368,-0.417 0.348,-0.435C0.329,-0.453 0.301,-0.462 0.267,-0.462C0.243,-0.462 0.221,-0.459 0.203,-0.453C0.184,-0.447 0.17,-0.438 0.158,-0.428L0.148,-0.372L0.074,-0.372L0.074,-0.475C0.098,-0.494 0.127,-0.509 0.161,-0.521C0.195,-0.532 0.232,-0.538 0.272,-0.538C0.332,-0.538 0.381,-0.523 0.418,-0.492C0.455,-0.462 0.474,-0.418 0.474,-0.361L0.474,-0.106C0.474,-0.1 0.474,-0.093 0.474,-0.086C0.474,-0.08 0.474,-0.073 0.475,-0.067L0.514,-0.062L0.514,0L0.388,0ZM0.233,-0.07C0.265,-0.07 0.294,-0.078 0.321,-0.093C0.347,-0.109 0.366,-0.127 0.377,-0.148L0.377,-0.235L0.275,-0.235C0.236,-0.235 0.204,-0.226 0.181,-0.208C0.158,-0.19 0.147,-0.168 0.147,-0.142C0.147,-0.118 0.154,-0.101 0.168,-0.089C0.183,-0.076 0.204,-0.07 0.233,-0.07Z" style="fill:rgb(70,122,181);fill-rule:nonzero;"/>
                </g>
                <g transform="matrix(190,0,0,190,2009.58,174.767)">
                    <path d="M0.032,0.141L0.111,0.127L0.111,-0.453L0.032,-0.466L0.032,-0.528L0.194,-0.528L0.203,-0.464C0.22,-0.488 0.242,-0.506 0.267,-0.519C0.292,-0.532 0.321,-0.538 0.354,-0.538C0.42,-0.538 0.471,-0.512 0.507,-0.46C0.543,-0.408 0.562,-0.34 0.562,-0.254L0.562,-0.244C0.562,-0.168 0.543,-0.107 0.507,-0.06C0.47,-0.013 0.42,0.01 0.356,0.01C0.323,0.01 0.295,0.005 0.27,-0.006C0.246,-0.017 0.225,-0.033 0.208,-0.055L0.208,0.127L0.287,0.141L0.287,0.203L0.032,0.203L0.032,0.141ZM0.465,-0.254C0.465,-0.315 0.453,-0.364 0.43,-0.402C0.406,-0.441 0.371,-0.46 0.325,-0.46C0.298,-0.46 0.274,-0.454 0.255,-0.441C0.235,-0.429 0.22,-0.412 0.208,-0.391L0.208,-0.133C0.22,-0.111 0.235,-0.095 0.255,-0.083C0.274,-0.071 0.298,-0.065 0.326,-0.065C0.372,-0.065 0.406,-0.082 0.43,-0.115C0.453,-0.148 0.465,-0.191 0.465,-0.244L0.465,-0.254Z" style="fill:rgb(70,122,181);fill-rule:nonzero;"/>
                </g>
                <g transform="matrix(190,0,0,190,2122.72,174.767)">
                    <path d="M0.043,-0.062L0.123,-0.075L0.123,-0.453L0.043,-0.466L0.043,-0.528L0.219,-0.528L0.219,-0.075L0.299,-0.062L0.299,0L0.043,0L0.043,-0.062ZM0.219,-0.664L0.123,-0.664L0.123,-0.762L0.219,-0.762L0.219,-0.664Z" style="fill:rgb(70,122,181);fill-rule:nonzero;"/>
                </g>
                <g transform="matrix(190,0,0,190,2183.25,174.767)">
                    <path d="M0.029,-0.062L0.109,-0.075L0.109,-0.453L0.029,-0.466L0.029,-0.528L0.195,-0.528L0.202,-0.45C0.219,-0.478 0.241,-0.499 0.268,-0.515C0.294,-0.53 0.325,-0.538 0.358,-0.538C0.415,-0.538 0.459,-0.521 0.491,-0.488C0.522,-0.455 0.538,-0.403 0.538,-0.333L0.538,-0.075L0.617,-0.062L0.617,0L0.362,0L0.362,-0.062L0.441,-0.075L0.441,-0.332C0.441,-0.378 0.432,-0.411 0.414,-0.431C0.395,-0.45 0.367,-0.46 0.33,-0.46C0.302,-0.46 0.277,-0.453 0.256,-0.44C0.235,-0.427 0.218,-0.408 0.205,-0.385L0.205,-0.075L0.285,-0.062L0.285,0L0.029,0L0.029,-0.062Z" style="fill:rgb(70,122,181);fill-rule:nonzero;"/>
                </g>
                <g transform="matrix(190,0,0,190,2302.7,174.767)">
                    <path d="M0.044,-0.254C0.044,-0.339 0.063,-0.408 0.1,-0.46C0.137,-0.512 0.188,-0.538 0.253,-0.538C0.287,-0.538 0.316,-0.532 0.341,-0.519C0.366,-0.506 0.387,-0.487 0.404,-0.462L0.413,-0.528L0.494,-0.528L0.494,-0.007C0.494,0.062 0.475,0.115 0.437,0.155C0.398,0.194 0.344,0.213 0.274,0.213C0.249,0.213 0.221,0.21 0.191,0.203C0.162,0.196 0.136,0.186 0.113,0.174L0.138,0.1C0.156,0.109 0.177,0.117 0.202,0.123C0.226,0.129 0.25,0.132 0.273,0.132C0.316,0.132 0.347,0.12 0.367,0.096C0.387,0.072 0.397,0.038 0.397,-0.007L0.397,-0.057C0.38,-0.035 0.36,-0.018 0.335,-0.007C0.311,0.005 0.284,0.01 0.252,0.01C0.188,0.01 0.137,-0.013 0.1,-0.06C0.063,-0.107 0.044,-0.168 0.044,-0.244L0.044,-0.254ZM0.14,-0.244C0.14,-0.191 0.151,-0.148 0.174,-0.116C0.196,-0.084 0.23,-0.068 0.276,-0.068C0.305,-0.068 0.33,-0.074 0.349,-0.088C0.369,-0.101 0.385,-0.119 0.397,-0.144L0.397,-0.387C0.385,-0.409 0.369,-0.427 0.349,-0.44C0.329,-0.453 0.305,-0.46 0.277,-0.46C0.231,-0.46 0.197,-0.441 0.174,-0.402C0.152,-0.364 0.14,-0.315 0.14,-0.254L0.14,-0.244Z" style="fill:rgb(70,122,181);fill-rule:nonzero;"/>
                </g>
            </g>
        </g>
    </g>
</svg>
