<?xml version="1.0" encoding="UTF-8" standalone="no"?>
<!DOCTYPE svg PUBLIC "-//W3C//DTD SVG 1.1//EN" "http://www.w3.org/Graphics/SVG/1.1/DTD/svg11.dtd">
<svg width="100%" height="100%" viewBox="0 0 2706 1158" version="1.1" xmlns="http://www.w3.org/2000/svg" xmlns:xlink="http://www.w3.org/1999/xlink" xml:space="preserve" xmlns:serif="http://www.serif.com/" style="fill-rule:evenodd;clip-rule:evenodd;stroke-miterlimit:1.5;">
    <g transform="matrix(1,0,0,1,-1621,-641)">
        <g>
            <g transform="matrix(22.0629,0,0,22.0629,-20131.1,-28692)">
                <text x="985.532px" y="1379.4px" style="font-family:'RobotoSlab-Regular', 'Roboto Slab';font-size:12px;fill:rgb(70,122,181);">Bluetr<tspan x="1020.18px " y="1379.4px ">e</tspan>e Landscapin<tspan x="1102.63px " y="1379.4px ">g</tspan></text>
            </g>
            <g transform="matrix(1,0,0,1,21.5375,-762.43)">
                <circle cx="2952.76" cy="1771.65" r="354.331" style="fill:rgb(138,207,215);stroke:white;stroke-width:14.67px;"/>
                <g transform="matrix(0.905233,0,0,0.905233,364.72,439.96)">
                    <circle cx="2759.64" cy="1471.87" r="291.463" style="fill:rgb(70,122,181);stroke:white;stroke-width:16.2px;stroke-linecap:round;"/>
                </g>
                <g transform="matrix(1.11645,0,0,1.14882,-360.125,571.36)">
                    <g id="triangle">
                        <path d="M2878.05,965.723L2911.24,1344.49L2845.72,1334.8L2878.05,965.723Z" style="fill:white;"/>
                    </g>
                </g>
                <g transform="matrix(0.731511,0,0,0.782863,771.569,990.969)">
                    <path d="M2940.74,983.802L2953.97,1052.51L2927.51,1052.51L2940.74,983.802Z" style="fill:white;"/>
                </g>
                <g transform="matrix(0.50283,-0.864385,1.02313,0.595175,369.723,3665.16)">
                    <path d="M2854.69,892.823L2869.92,1016.76L2838.94,1031.98L2854.69,892.823Z" style="fill:white;"/>
                </g>
                <g transform="matrix(-0.50283,-0.864385,-1.02313,0.595175,5336.43,3714.34)">
                    <path d="M2854.69,892.823L2869.92,1016.76L2838.94,1031.98L2854.69,892.823Z" style="fill:white;"/>
                </g>
                <g transform="matrix(0.817636,0.575736,0.575736,-0.817636,-108.772,1022.18)">
                    <path d="M2795.79,999.065L2803.42,1052.51L2788.16,1052.51L2795.79,999.065Z" style="fill:white;"/>
                </g>
            </g>
        </g>
    </g>
</svg>
